<?xml version="1.0" encoding="utf-8"?>
<!-- Generator: Adobe Illustrator 25.0.0, SVG Export Plug-In . SVG Version: 6.00 Build 0)  -->
<svg version="1.1" id="Layer_1" xmlns="http://www.w3.org/2000/svg" xmlns:xlink="http://www.w3.org/1999/xlink" x="0px" y="0px"
	 viewBox="0 0 32 32" style="enable-background:new 0 0 32 32;" xml:space="preserve">
<style type="text/css">
	.st0{fill:none;stroke:#6FB0FF;stroke-linecap:round;stroke-linejoin:round;stroke-miterlimit:10;}
	.st1{fill:none;}
</style>
<path class="st0" d="M24,3.3h-0.2c-2.3,0-4.3,1.7-4.9,4h5.3c0.3,0,0.5,0.2,0.5,0.4v1.9c0,0.2-0.2,0.4-0.5,0.4h-5.4v10.3
	c0,2.8,2.2,5.1,5,5.1H24c2.7,0,5-2.3,5-5.1V8.4C28.9,5.6,26.7,3.3,24,3.3z M23.9,5.6c-1.2,0-2.2,0.7-2.7,1.6h3
	c0.3,0,0.5,0.2,0.5,0.4v1.9c0,0.2-0.2,0.4-0.5,0.4H21c0.4,1.2,1.6,2.1,3,2.1c1.7,0,3.2-1.5,3.2-3.2C27.1,7.1,25.7,5.6,23.9,5.6z
	 M23.9,17c-0.9,0-1.7,0.8-1.7,1.7c0,0.6,0.3,1.1,0.8,1.5v0.8c0,0.5,0.4,0.9,0.9,0.9c0.5,0,0.9-0.4,0.9-0.9v-0.7
	c0.5-0.3,0.8-0.8,0.8-1.5C25.6,17.8,24.8,17,23.9,17z"/>
<path class="st0" d="M10.7,17.4c0.3-1.1,1.4-1.8,2.5-1.5c1.1,0.3,1.8,1.4,1.5,2.5"/>
<path class="st1" d="M8.2,19.3C7.9,19,8,18.5,8.3,18.2C8.6,18,9.1,18,9.4,18.3c0.3,0.3,0.2,0.8-0.1,1.1C8.9,19.7,8.4,19.6,8.2,19.3
	 M10.4,21.4c1.2-0.9,1.4-2.7,0.5-3.8c-0.9-1.2-2.7-1.4-3.9-0.5C6.1,17.8,5.7,19,6,20l-3.5,3.3c-0.1,0.1-0.2,0.3-0.2,0.4l0,0.7
	c0,0.1,0,0.2,0.1,0.3c0.1,0.1,0.2,0.2,0.4,0.2l1.6-0.1c0.2,0,0.3-0.1,0.4-0.2c0.1-0.1,0.2-0.3,0.2-0.4l0-0.3l0.3,0
	c0.2,0,0.3-0.1,0.4-0.2c0.1-0.1,0.2-0.3,0.2-0.4l0-0.2l0.3,0c0.2,0,0.3-0.1,0.4-0.2c0.1-0.1,0.2-0.3,0.2-0.4l0-0.4l0.7-0.7
	C8.3,22.2,9.5,22.1,10.4,21.4"/>
<path class="st0" d="M24.6,7.7v1.9c0,0.2-0.2,0.4-0.5,0.4H13.7c-0.9,0-1.5-0.6-1.5-1.3V8.6c0-0.7,0.7-1.3,1.5-1.3h10.4
	C24.4,7.2,24.6,7.4,24.6,7.7z"/>
<path class="st0" d="M14.2,23.9l1.2,4.6c0,0.2,0.1,0.3,0.3,0.4l0.5,0.4c0.1,0.1,0.2,0.1,0.3,0.1c0.1,0,0.2-0.1,0.3-0.3l0.6-1.4
	c0.1-0.1,0.1-0.3,0-0.5c0-0.1-0.1-0.3-0.2-0.3L17,26.7l0.1-0.3c0.1-0.1,0.1-0.3,0-0.5c0-0.2-0.1-0.3-0.3-0.3l-0.1-0.1l0.1-0.2
	c0.1-0.1,0.1-0.3,0-0.5c0-0.2-0.1-0.3-0.3-0.3l-0.3-0.2L16,23.2"/>
<path class="st1" d="M15.8,22.5l-2.9,0.7c-0.6,0.2-1.3-0.2-1.4-0.8l-0.5-1.9c-0.2-0.6,0.2-1.2,0.8-1.4l2.9-0.7
	c0.6-0.2,1.3,0.2,1.4,0.8l0.5,1.9C16.8,21.7,16.4,22.4,15.8,22.5"/>
<path class="st0" d="M14.7,20.3c0,0.2-0.2,0.4-0.4,0.4c-0.2,0-0.4-0.2-0.4-0.4c0-0.2,0.2-0.4,0.4-0.4C14.5,19.9,14.7,20.1,14.7,20.3
	z"/>
<path class="st0" d="M8.2,19.3C7.9,19,8,18.5,8.3,18.2C8.6,18,9.1,18,9.4,18.3c0.3,0.3,0.2,0.8-0.1,1.1C8.9,19.7,8.4,19.6,8.2,19.3z
	 M10.4,21.4c1.2-0.9,1.4-2.7,0.5-3.8c-0.9-1.2-2.7-1.4-3.9-0.5C6.1,17.8,5.7,19,6,20l-3.5,3.3c-0.1,0.1-0.2,0.3-0.2,0.4l0,0.7
	c0,0.1,0,0.2,0.1,0.3c0.1,0.1,0.2,0.2,0.4,0.2l1.6-0.1c0.2,0,0.3-0.1,0.4-0.2c0.1-0.1,0.2-0.3,0.2-0.4l0-0.3l0.3,0
	c0.2,0,0.3-0.1,0.4-0.2c0.1-0.1,0.2-0.3,0.2-0.4l0-0.2l0.3,0c0.2,0,0.3-0.1,0.4-0.2c0.1-0.1,0.2-0.3,0.2-0.4l0-0.4l0.7-0.7
	C8.3,22.2,9.5,22.1,10.4,21.4z"/>
<path class="st0" d="M16.2,22.7l-2.9,0.7c-0.6,0.2-1.3-0.2-1.4-0.8l-0.5-1.9c-0.2-0.6,0.2-1.2,0.8-1.4l2.9-0.7
	c0.6-0.2,1.3,0.2,1.4,0.8l0.5,1.9C17.2,21.9,16.9,22.5,16.2,22.7z"/>
</svg>
