<?xml version="1.0" standalone="no"?>
<!DOCTYPE svg PUBLIC "-//W3C//DTD SVG 20010904//EN"
 "http://www.w3.org/TR/2001/REC-SVG-20010904/DTD/svg10.dtd">
<svg version="1.0" xmlns="http://www.w3.org/2000/svg"
 width="300.000000pt" height="300.000000pt" viewBox="0 0 300.000000 300.000000"
 preserveAspectRatio="xMidYMid meet">
<metadata>
Created by potrace 1.10, written by Peter Selinger 2001-2011
</metadata>
<g transform="translate(0.000000,300.000000) scale(0.100000,-0.100000)"
fill="#5FCDFC" stroke="none">
<path d="M319 2696 c-20 -7 -52 -28 -71 -47 -117 -115 -44 -298 126 -316 53
-5 94 7 146 44 13 10 21 13 17 6 -4 -6 0 -19 9 -27 12 -13 40 -16 138 -16 70
0 126 4 132 10 14 14 44 2 44 -17 0 -8 -5 -11 -10 -8 -6 3 -23 -3 -39 -14 -16
-12 -33 -21 -39 -21 -47 0 -106 -153 -81 -212 6 -15 9 -38 6 -50 -3 -13 -10
-42 -16 -66 -13 -48 -2 -80 43 -121 31 -29 33 -64 6 -98 -11 -14 -20 -34 -20
-44 0 -13 -10 -20 -35 -25 -19 -3 -35 -10 -35 -16 0 -5 -4 -7 -9 -4 -8 6 -62
-30 -90 -61 -10 -10 -30 -44 -47 -76 -28 -56 -49 -75 -101 -91 -20 -6 -23 -4
-23 21 0 26 -40 83 -58 83 -4 0 -12 10 -17 22 -6 13 -21 28 -34 35 -21 10 -27
9 -43 -9 -10 -12 -18 -33 -18 -47 0 -25 -3 -26 -55 -27 -45 0 -64 -7 -98 -30
-23 -17 -43 -38 -45 -48 -3 -14 5 -11 38 15 41 33 45 34 131 34 49 0 89 0 89
1 0 1 -9 12 -20 24 -26 30 -22 64 8 68 18 3 22 -1 22 -22 0 -14 4 -26 9 -26 5
0 23 -13 39 -29 23 -21 29 -34 25 -50 -6 -23 19 -53 86 -101 17 -12 31 -27 31
-34 0 -7 7 -21 16 -32 14 -18 15 -18 9 6 -6 24 -6 24 10 5 8 -11 21 -36 27
-57 13 -43 4 -59 -45 -84 -52 -27 -108 12 -181 129 -38 60 -42 62 -65 48 -10
-6 -22 -5 -35 2 -12 6 -50 14 -86 17 -49 4 -66 9 -68 21 -4 24 48 36 61 13 7
-12 11 -13 17 -4 6 9 15 10 37 3 31 -11 83 7 83 29 0 6 -8 4 -18 -5 -35 -32
-73 -15 -52 23 6 11 7 20 2 20 -5 0 -14 -11 -20 -25 -11 -23 -16 -25 -52 -19
-26 4 -45 2 -55 -6 -8 -7 -22 -10 -30 -6 -10 4 -15 -1 -15 -14 0 -11 7 -20 15
-20 8 0 19 -9 25 -19 6 -12 17 -17 28 -14 10 2 43 -1 73 -7 30 -7 67 -13 84
-14 16 -2 34 -11 40 -22 26 -48 97 -133 115 -139 11 -4 20 -10 20 -14 0 -5 14
-11 31 -15 25 -5 39 0 67 20 19 15 51 29 71 31 39 4 69 26 82 61 17 43 53 20
83 -52 9 -22 14 -47 10 -55 -11 -28 -34 -153 -44 -246 -7 -64 -16 -97 -30
-115 -54 -67 -52 -60 -82 -278 -13 -96 -1 -154 34 -173 25 -14 134 -5 155 12
21 18 9 21 -28 6 -55 -21 -109 -14 -136 17 -25 30 -27 48 -12 116 5 25 14 74
19 110 17 108 20 118 56 161 19 22 34 47 34 55 0 8 5 14 10 14 6 0 10 8 10 17
0 9 7 24 15 33 12 13 13 23 6 41 -7 17 -10 19 -10 7 -1 -10 -5 -18 -11 -18
-13 0 -12 11 5 90 8 36 14 79 15 97 0 17 6 38 13 45 18 17 17 50 0 63 -8 6
-18 26 -22 45 -4 22 -15 39 -29 46 -23 11 -23 12 12 32 20 12 36 26 36 31 0 5
-28 -7 -62 -28 l-63 -38 -21 55 c-18 50 -63 103 -94 114 -41 13 27 158 82 177
28 10 67 3 107 -18 12 -7 21 -8 21 -2 0 8 -35 23 -100 45 -9 3 -6 5 8 5 12 1
22 6 22 13 0 7 6 6 18 -3 9 -8 30 -21 46 -29 83 -42 156 -142 156 -214 0 -69
-43 -141 -102 -172 -16 -8 -28 -19 -28 -25 0 -17 55 18 92 59 28 31 39 37 49
28 11 -9 11 -8 0 6 -7 9 -10 26 -6 38 5 16 10 18 26 9 25 -13 51 5 47 33 -3
17 4 20 52 23 74 5 140 -4 140 -19 0 -7 12 -23 26 -37 23 -21 25 -30 22 -79
-5 -60 -25 -111 -47 -118 -10 -3 -12 0 -7 14 4 11 13 48 19 83 9 58 9 65 -8
77 -19 14 -114 17 -170 5 -29 -6 -30 -9 -36 -71 -4 -36 -10 -80 -14 -97 l-7
-33 76 0 c59 0 81 4 96 18 18 16 17 17 -28 13 -39 -4 -43 -5 -22 -12 18 -5 7
-7 -37 -8 -62 -1 -63 -1 -63 27 0 21 2 24 11 12 7 -11 8 -4 4 25 -5 29 -4 36
4 25 8 -11 9 0 6 40 -4 39 -3 49 4 35 8 -17 10 -18 10 -2 1 15 12 17 81 17
l80 0 0 -32 c0 -18 -6 -59 -14 -91 l-13 -57 33 2 c44 3 50 -5 59 -74 6 -55 5
-58 -18 -63 -14 -4 -41 -2 -61 3 -21 6 -34 7 -31 1 4 -5 12 -9 20 -9 22 0 24
-26 7 -112 -11 -58 -22 -88 -37 -100 -25 -21 -40 -8 -31 27 10 41 12 206 3
189 -5 -9 -10 -68 -11 -132 -1 -64 -8 -130 -14 -145 -14 -32 -14 -100 -1 -137
5 -16 7 -2 3 43 -5 56 -2 72 15 100 34 55 80 71 52 18 -6 -10 -11 -61 -12
-114 l-2 -97 -38 -10 c-50 -14 -50 -21 1 -18 23 1 42 8 45 16 4 10 16 12 48 7
55 -9 87 -30 88 -58 1 -17 2 -18 6 -4 7 26 -24 67 -50 67 -32 0 -64 25 -69 55
-7 36 10 210 27 275 8 30 16 67 20 83 3 15 12 27 21 27 9 0 24 10 35 23 16 19
18 20 19 4 0 -10 7 -20 15 -23 8 -4 15 -12 15 -20 0 -8 5 -14 11 -14 22 0 37
-33 32 -71 -5 -35 -3 -37 26 -44 35 -8 36 -10 16 -48 -13 -25 -13 -31 1 -52
14 -21 14 -26 -1 -55 -9 -18 -14 -37 -12 -43 2 -7 5 -16 5 -20 0 -5 9 -15 19
-24 13 -10 15 -16 6 -19 -7 -3 -13 -21 -13 -40 0 -28 10 -45 46 -84 26 -28 51
-50 56 -50 5 0 28 18 51 41 l41 40 9 177 c7 132 13 181 24 194 9 10 12 25 8
38 -5 17 1 31 27 59 54 56 77 140 58 209 -14 56 -62 117 -107 138 l-39 19 24
43 c22 38 24 52 19 108 -4 35 -18 92 -33 127 -15 34 -29 89 -33 122 -8 68 -18
90 -56 124 -67 57 -130 59 -173 5 -15 -19 -35 -34 -44 -34 -9 0 -28 -10 -42
-22 -30 -28 -22 -57 21 -84 15 -10 47 -36 71 -58 25 -24 42 -34 42 -26 1 28
30 -22 30 -51 0 -39 -29 -28 -58 21 -14 26 -32 42 -50 46 -15 4 -57 20 -94 37
l-68 30 0 51 c0 28 5 69 11 91 6 22 10 77 9 122 -1 58 3 90 15 113 15 29 15
32 -5 57 -11 14 -20 38 -20 53 0 35 -36 87 -75 109 -16 9 -31 19 -33 23 -2 4
-10 4 -18 1 -8 -3 -14 0 -14 6 0 6 -12 11 -27 11 l-28 0 25 13 c16 8 26 23 28
40 3 27 22 39 22 14 0 -30 45 -57 96 -57 28 0 55 5 61 11 8 8 13 8 17 0 4 -6
29 -11 56 -11 52 0 77 21 64 54 -11 27 19 8 38 -24 14 -25 23 -29 70 -32 29
-2 79 -1 110 0 52 3 58 6 70 33 7 16 17 30 23 30 47 6 55 5 55 -9 0 -29 41
-52 91 -52 26 0 51 4 54 10 4 6 17 4 37 -6 51 -26 126 -9 172 40 18 19 26 24
23 13 -5 -12 1 -26 16 -40 18 -19 31 -22 77 -20 65 3 91 3 148 1 28 -1 49 5
63 17 19 18 20 29 17 172 -2 124 0 152 10 148 8 -3 52 -5 99 -5 83 0 86 -1
119 -34 22 -22 34 -44 34 -60 0 -36 -27 -86 -45 -86 -8 0 -15 -2 -15 -4 0 -11
64 -106 71 -106 5 0 9 -7 9 -15 0 -13 -4 -14 -21 -4 -12 6 -34 9 -50 7 -26 -4
-30 0 -51 47 -20 45 -26 52 -52 52 l-28 0 5 -54 c5 -52 5 -53 -19 -47 -32 8
-76 -4 -71 -19 5 -16 88 -9 108 9 10 9 15 24 12 35 -7 26 14 24 28 -3 22 -41
39 -51 86 -50 67 2 80 19 53 68 -12 21 -26 44 -31 50 -6 7 -4 16 6 24 14 11
19 7 16 -12 0 -5 3 -8 9 -8 5 0 10 -7 10 -15 0 -8 5 -15 10 -15 6 0 10 -4 10
-10 0 -16 50 -60 87 -75 70 -29 157 -11 223 46 23 19 25 29 28 118 4 94 3 99
-23 130 -48 56 -149 85 -219 61 -19 -6 -55 -32 -80 -58 -28 -29 -46 -41 -46
-31 0 29 -56 70 -116 85 -61 16 -157 12 -181 -8 -9 -7 -17 -7 -26 0 -18 15
-243 18 -261 3 -10 -8 -16 -8 -24 2 -15 17 -84 16 -105 -2 -14 -11 -17 -33
-17 -117 0 -104 -5 -120 -30 -104 -9 5 -25 0 -46 -16 -18 -14 -34 -21 -37 -17
-3 4 -26 62 -52 128 -26 66 -53 123 -59 127 -6 4 -34 8 -62 8 -48 0 -51 -2
-72 -39 -12 -21 -22 -44 -22 -50 0 -6 -8 -30 -19 -54 -10 -23 -26 -64 -36 -90
-17 -47 -18 -48 -32 -27 -14 20 -14 26 7 67 16 32 21 55 17 80 -7 40 -48 89
-87 105 -20 8 -109 10 -197 5 -17 -1 -26 -26 -24 -62 l2 -30 -39 45 -39 44
-100 4 c-65 3 -108 0 -122 -8 -17 -9 -26 -9 -37 1 -17 14 -176 25 -227 15 -26
-5 -38 -13 -44 -32 l-8 -25 -25 19 c-28 22 -91 42 -130 42 -14 -1 -41 -7 -61
-14z m180 -55 l24 -18 -20 -20 c-11 -11 -23 -27 -25 -34 -4 -10 -12 -6 -27 14
-48 58 -151 15 -151 -63 0 -48 44 -90 93 -90 34 1 67 20 67 39 0 17 6 14 40
-20 35 -35 34 -36 -35 -69 -113 -54 -245 21 -245 139 0 80 47 133 138 156 50
13 92 2 141 -34z m307 -8 c1 -27 -2 -40 -10 -38 -6 3 -43 6 -82 8 l-71 4 1
-29 1 -30 60 4 60 4 1 -36 1 -35 -61 3 -61 3 -1 -29 -1 -28 73 2 c39 1 77 5
83 8 7 5 11 -7 11 -36 l0 -43 -123 0 -122 0 0 155 0 155 120 0 120 0 1 -42z
m254 24 c14 -7 33 -29 43 -49 16 -32 17 -43 7 -74 -7 -21 -21 -39 -31 -41 -11
-3 -19 -7 -19 -9 0 -8 45 -81 62 -100 l19 -21 -52 3 c-52 2 -52 2 -76 53 -20
41 -29 51 -49 51 -22 0 -24 -4 -24 -43 0 -24 5 -48 10 -53 7 -7 -7 -10 -42
-10 l-53 1 0 155 0 155 90 -3 c50 -2 101 -9 115 -15z m346 -20 c35 -41 33
-100 -4 -135 l-28 -27 23 -35 c42 -63 47 -70 54 -70 3 0 23 44 44 98 21 53 47
122 59 152 l21 55 47 0 c45 0 48 -2 54 -30 4 -16 13 -43 20 -60 7 -16 28 -68
45 -115 18 -47 37 -86 41 -88 23 -10 2 -17 -47 -17 l-55 0 0 37 0 36 -59 1
-59 0 -6 -37 -5 -37 -98 0 -98 0 -24 51 c-20 42 -30 51 -51 52 -26 1 -26 -1
-22 -51 l4 -52 -44 0 -43 0 0 155 0 155 104 -5 c97 -5 104 -7 127 -33z m604
-81 c-3 -71 -10 -130 -18 -143 -15 -28 -62 -53 -97 -53 -21 0 -77 21 -93 35
-2 1 11 16 27 32 22 22 31 27 35 17 6 -17 42 -19 52 -3 3 6 6 61 5 122 l-2
112 48 1 48 1 -5 -121z m292 82 l-4 -37 -81 4 -82 4 0 -31 0 -30 65 4 65 3 0
-35 1 -36 -62 4 -61 4 -5 -30 -4 -30 77 3 c43 1 82 5 86 8 5 3 9 -16 9 -42
l-1 -47 -43 9 c-24 5 -80 7 -125 5 l-82 -3 0 155 0 155 125 0 125 0 -3 -37z
m617 14 c95 -70 95 -194 -1 -265 -16 -12 -49 -22 -81 -25 -186 -15 -255 227
-86 303 44 20 133 13 168 -13z m-2089 -132 c0 -66 -1 -70 -19 -61 -10 6 -22 7
-27 3 -5 -4 -3 0 3 8 5 8 9 34 8 58 -2 37 10 59 33 62 1 0 2 -32 2 -70z m1490
6 c0 -61 -1 -64 -24 -62 -18 1 -22 5 -16 16 4 8 7 34 5 57 -1 24 1 40 6 37 5
-3 9 0 9 5 0 6 5 11 10 11 6 0 10 -28 10 -64z m-1885 34 l32 -20 27 21 c15 12
30 18 34 14 4 -4 7 -33 7 -65 0 -50 -2 -57 -16 -50 -9 5 -21 16 -29 24 -16 20
-25 20 -46 -1 -10 -10 -20 -17 -23 -16 -3 1 -16 0 -29 -4 -54 -13 -82 79 -32
104 33 17 37 16 75 -7z m708 -97 c-3 -29 -9 -53 -14 -53 -5 0 -9 8 -9 18 0 10
-5 23 -10 28 -7 7 -4 19 11 38 12 15 23 26 24 24 2 -2 0 -27 -2 -55z m-143
-184 c63 -33 90 -72 90 -127 0 -17 6 -32 15 -36 19 -7 19 -32 1 -43 -17 -10
-23 -73 -12 -129 5 -29 3 -58 -8 -95 -9 -29 -16 -76 -16 -105 0 -60 -6 -64
-102 -64 -56 0 -58 1 -78 38 -19 34 -20 35 -15 8 l6 -29 -36 31 c-43 38 -58
42 -25 7 13 -14 48 -37 77 -51 42 -21 62 -25 93 -20 37 6 40 5 40 -18 0 -13 5
-26 11 -28 7 -2 9 -15 5 -35 l-7 -31 -32 16 c-18 8 -39 18 -47 22 -8 4 -17 18
-20 31 -4 18 -25 34 -82 63 -42 21 -82 36 -90 33 -9 -3 -7 -7 7 -12 11 -4 48
-20 82 -34 l62 -27 -35 -34 -35 -34 -22 26 c-31 36 -84 70 -92 59 -3 -6 5 -15
17 -22 13 -7 39 -27 58 -46 19 -18 42 -33 51 -33 17 0 62 -76 73 -124 5 -19 3
-32 -6 -37 -11 -7 -11 -12 0 -29 10 -16 10 -20 -2 -20 -16 0 -26 21 -26 53 0
69 -91 184 -177 225 -41 19 -41 25 -3 39 17 6 30 19 30 28 0 9 -5 13 -11 9 -7
-4 -10 1 -7 12 2 11 12 19 23 19 25 0 38 30 25 55 -6 10 -10 30 -10 44 0 16
-6 26 -15 26 -28 0 -55 38 -55 78 1 72 43 94 82 42 12 -16 25 -30 28 -30 16 0
30 54 24 91 -6 37 -9 39 -43 41 -20 1 -44 2 -53 2 -28 2 -45 23 -30 38 7 7 12
28 12 48 0 49 21 75 88 110 75 38 119 38 192 -1z m-216 -220 c29 -13 36 -27
27 -52 -6 -17 -7 -17 -27 1 -11 10 -30 17 -42 15 -18 -2 -22 2 -22 22 0 28 22
33 64 14z m641 -235 c49 -32 69 -71 70 -141 1 -28 6 -57 12 -65 23 -28 53
-121 55 -171 2 -67 -24 -124 -60 -132 -36 -7 -122 10 -133 26 -17 27 1 107 21
94 6 -4 10 7 10 25 0 18 -4 29 -10 25 -5 -3 -10 -12 -10 -19 0 -8 -6 -19 -14
-25 -16 -13 -28 -75 -19 -98 3 -8 24 -23 47 -33 l41 -19 -62 0 c-57 -1 -64 1
-79 25 -22 33 -22 105 -1 138 10 14 31 32 47 41 27 14 29 14 24 -2 -4 -13 0
-12 15 6 21 23 25 55 12 100 -4 17 -17 28 -39 33 -17 5 -39 20 -48 34 -10 14
-35 34 -56 45 -61 31 -40 72 28 55 14 -4 22 -11 19 -16 -10 -17 44 -42 105
-49 33 -4 60 -4 60 0 0 4 -10 9 -22 11 -27 3 -34 41 -12 59 8 6 14 16 14 22 0
5 -9 2 -20 -8 -11 -10 -20 -28 -20 -41 0 -28 -19 -42 -31 -23 -15 24 -10 62
13 86 12 13 17 23 11 23 -5 0 -20 -11 -33 -25 -18 -19 -21 -31 -16 -57 l6 -33
-29 32 c-33 35 -32 64 2 88 31 21 54 19 102 -11z m-337 -156 c22 -22 14 -48
-14 -48 -20 0 -25 4 -20 16 3 9 6 22 6 30 0 17 12 18 28 2z m61 -18 c42 -22
69 -240 31 -248 -12 -2 -15 13 -15 85 0 74 -4 94 -22 124 -32 50 -30 59 6 39z
m58 -32 c4 -7 13 -49 19 -93 l11 -80 2 71 c0 39 4 74 7 77 12 11 44 -13 44
-33 0 -10 7 -26 16 -35 15 -15 15 -18 -10 -44 -43 -45 -48 -137 -10 -175 14
-15 14 -16 0 -16 -9 0 -16 4 -16 9 0 5 -9 11 -20 14 -13 3 -20 14 -21 29 0 21
-1 22 -8 3 -5 -11 -6 -27 -4 -35 4 -13 4 -13 -5 0 -7 9 -9 57 -5 130 4 92 2
123 -10 153 -15 35 -8 52 10 25z m-275 -20 c2 -15 15 -25 44 -35 44 -15 66
-49 78 -121 l6 -33 -52 3 c-49 3 -53 5 -62 33 -13 43 -28 76 -49 107 -15 23
-16 30 -5 48 17 26 36 26 40 -2z m207 -20 c7 -24 11 -70 9 -103 l-3 -60 -34 0
c-18 -1 -34 4 -36 10 -32 127 -30 156 13 179 38 21 38 21 51 -26z m-652 -142
c-4 -9 5 -18 23 -26 36 -15 65 -46 84 -91 18 -43 28 -119 15 -119 -5 0 -12 0
-16 0 -5 0 -8 4 -8 9 0 5 -4 13 -9 18 -5 4 -7 -3 -4 -17 3 -20 0 -26 -13 -26
-10 0 -16 3 -13 7 7 12 -26 93 -49 117 -12 13 -41 35 -65 49 -31 18 -40 29
-33 36 8 8 25 4 58 -13 66 -34 67 -34 59 -21 -4 6 -28 22 -54 35 l-46 23 32 8
c18 3 32 11 32 16 0 5 3 9 6 9 3 0 4 -6 1 -14z m1068 -165 c78 -36 115 -95
115 -182 0 -67 -35 -125 -93 -155 l-28 -15 21 -26 c25 -32 25 -41 0 -45 -18
-3 -20 -14 -24 -182 -5 -173 -6 -179 -31 -212 -14 -19 -31 -34 -38 -34 -19 0
-87 73 -87 94 0 11 7 28 17 38 15 17 15 20 -5 41 -28 29 -28 55 0 84 l21 23
-23 25 c-22 23 -22 26 -7 43 10 10 17 33 17 50 0 29 -2 31 -29 26 -39 -8 -48
11 -22 46 20 27 20 29 2 35 -31 10 -91 77 -102 116 -17 55 -3 122 35 172 27
35 42 45 91 58 80 22 122 22 170 0z m-260 -12 c5 -6 5 -9 -3 -9 -13 0 -62 -91
-62 -117 -1 -15 -3 -14 -14 5 -10 19 -10 34 3 83 15 56 17 60 41 54 14 -4 29
-11 35 -16z"/>
<path d="M938 2569 l-3 -37 35 5 c55 7 62 11 58 35 -2 19 -11 24 -45 29 l-41
5 -4 -37z"/>
<path d="M1255 2569 c0 -36 1 -37 35 -32 55 7 62 11 58 35 -2 19 -11 24 -48
28 l-46 5 1 -36z"/>
<path d="M1610 2589 c0 -15 -7 -43 -15 -63 l-15 -36 39 0 40 0 -15 28 c-7 15
-14 36 -14 47 0 11 -5 27 -10 35 -8 12 -10 9 -10 -11z"/>
<path d="M2774 2595 c-12 -8 -27 -28 -34 -45 -23 -55 22 -120 83 -120 40 0 87
49 87 90 0 66 -84 112 -136 75z m91 -40 c21 -20 16 -64 -10 -81 -21 -14 -30
-14 -55 -4 -41 17 -43 69 -3 98 28 21 35 19 68 -13z"/>
<path d="M962 2265 c38 -44 78 -106 78 -121 0 -8 -11 -14 -25 -14 -20 0 -25 6
-31 36 -7 40 -71 114 -98 114 -12 0 -7 -9 17 -30 23 -20 40 -48 51 -85 16 -49
21 -55 44 -55 26 1 89 29 66 30 -6 0 -9 12 -6 28 3 20 -3 36 -20 53 -12 14
-20 20 -15 15 4 -6 7 -15 7 -20 0 -6 -21 10 -47 34 -26 25 -36 32 -21 15z m88
-83 c0 -15 -2 -15 -10 -2 -13 20 -13 33 0 25 6 -3 10 -14 10 -23z"/>
<path d="M845 2241 c41 -24 85 -78 85 -102 0 -25 -27 -25 -35 0 -8 27 -69 79
-101 87 -14 4 -30 2 -37 -5 -8 -8 -5 -11 14 -11 37 0 89 -37 105 -75 12 -29
19 -35 45 -35 29 0 31 2 24 28 -11 44 -39 85 -75 109 -18 13 -38 23 -44 23 -6
0 3 -8 19 -19z"/>
<path d="M828 2113 c7 -3 16 -2 19 1 4 3 -2 6 -13 5 -11 0 -14 -3 -6 -6z"/>
<path d="M840 2081 c0 -23 187 -47 207 -27 4 3 -30 6 -75 6 -44 0 -83 4 -86 9
-7 11 -46 21 -46 12z"/>
<path d="M867 2023 c-15 -14 -6 -23 11 -12 30 19 76 -2 83 -37 5 -28 5 -28 10
9 3 21 3 40 0 42 -7 8 -97 6 -104 -2z"/>
<path d="M1006 2014 c-3 -9 -6 -21 -5 -27 0 -7 5 -1 10 12 7 18 14 22 34 17
14 -4 25 -2 25 4 0 17 -57 12 -64 -6z"/>
<path d="M882 1998 c-7 -7 -8 -17 -1 -30 12 -22 32 -23 49 -3 23 28 -21 60
-48 33z"/>
<path d="M1027 2003 c-10 -10 -8 -52 3 -74 16 -29 5 -37 -40 -29 -29 5 -40 4
-40 -5 0 -8 16 -12 47 -11 37 1 49 5 51 19 2 10 -1 24 -7 31 -9 10 -8 15 3 19
8 3 13 14 11 24 -2 10 -4 21 -4 26 -1 9 -15 9 -24 0z"/>
<path d="M749 1981 c9 -6 12 -19 8 -37 -5 -29 0 -54 12 -54 10 0 8 72 -2 88
-5 6 -14 12 -20 12 -8 0 -7 -3 2 -9z"/>
<path d="M940 1940 c0 -5 5 -10 11 -10 5 0 7 5 4 10 -3 6 -8 10 -11 10 -2 0
-4 -4 -4 -10z"/>
<path d="M830 1889 c0 -8 7 -24 15 -35 18 -24 19 -7 0 26 -9 16 -14 19 -15 9z"/>
<path d="M886 1861 c-10 -16 9 -63 32 -82 19 -15 38 -19 70 -17 43 3 45 5 57
44 l12 41 -41 -4 c-23 -3 -60 2 -84 10 -23 8 -44 12 -46 8z m99 -31 c45 0 46
-1 43 -27 -3 -24 -8 -28 -39 -31 -41 -3 -89 28 -89 59 0 16 3 18 19 9 11 -5
41 -10 66 -10z"/>
<path d="M980 1741 c0 -5 9 -7 20 -4 11 3 20 7 20 9 0 2 -9 4 -20 4 -11 0 -20
-4 -20 -9z"/>
<path d="M1462 1550 c0 -19 2 -27 5 -17 2 9 2 25 0 35 -3 9 -5 1 -5 -18z"/>
<path d="M1463 1460 c0 -30 2 -43 4 -27 2 15 2 39 0 55 -2 15 -4 2 -4 -28z"/>
<path d="M1329 1453 c-13 -16 -12 -17 4 -4 16 13 21 21 13 21 -2 0 -10 -8 -17
-17z"/>
<path d="M1086 1555 c-10 -20 -15 -41 -13 -48 3 -7 8 2 12 18 4 17 12 36 18
43 5 7 8 15 5 18 -3 2 -13 -11 -22 -31z"/>
<path d="M556 1290 c-17 -6 -18 -7 -3 -13 9 -3 19 -2 23 4 9 15 2 18 -20 9z"/>
<path d="M1433 1247 c-46 -21 -48 -86 -4 -127 17 -16 64 -23 55 -8 -3 4 -1 8
5 8 6 0 17 13 25 28 13 26 13 32 -2 62 -20 38 -48 52 -79 37z m69 -41 c22 -32
-15 -91 -49 -79 -45 15 -57 72 -21 97 22 16 53 8 70 -18z"/>
<path d="M1567 1204 c19 -21 32 -43 29 -51 -4 -8 -1 -11 5 -7 8 4 9 -1 4 -15
-4 -12 -2 -21 4 -21 6 0 10 -19 8 -45 -2 -27 1 -41 6 -36 12 12 11 90 -2 122
-12 34 -60 89 -76 89 -7 0 3 -16 22 -36z"/>
<path d="M1284 1144 c-4 -20 -1 -54 5 -76 13 -43 92 -138 87 -105 -1 10 -14
28 -28 40 -34 30 -61 102 -53 144 3 18 4 33 1 33 -3 0 -8 -16 -12 -36z"/>
<path d="M1484 710 c0 -124 2 -174 3 -112 2 61 2 163 0 225 -1 61 -3 11 -3
-113z"/>
<path d="M1511 708 c1 -112 3 -196 5 -188 7 31 9 390 2 390 -5 0 -7 -91 -7
-202z"/>
<path d="M1462 830 c0 -14 2 -19 5 -12 2 6 2 18 0 25 -3 6 -5 1 -5 -13z"/>
<path d="M2430 2569 l0 -37 43 5 c51 7 61 15 53 41 -5 15 -17 21 -51 24 l-45
3 0 -36z"/>
<path d="M1210 2163 c-19 -3 -40 -9 -47 -14 -17 -15 2 -62 30 -74 20 -9 22
-16 19 -71 -3 -53 0 -65 18 -81 17 -17 63 -24 75 -11 2 2 6 37 9 78 6 88 3 77
19 83 8 3 13 -3 13 -14 0 -11 -4 -19 -8 -19 -4 0 -8 -10 -7 -22 0 -21 1 -22 8
-3 6 15 9 11 14 -23 4 -23 12 -42 17 -42 6 0 10 -7 10 -16 0 -8 4 -13 9 -10 5
4 11 1 13 -5 6 -17 106 -19 112 -3 7 18 31 18 60 -1 30 -20 88 -3 79 23 -3 9
8 3 24 -15 17 -17 34 -28 39 -23 13 12 46 15 71 6 27 -9 63 9 63 30 0 12 4 11
18 -6 16 -20 29 -22 129 -25 97 -3 113 -1 131 15 17 16 22 17 38 5 11 -8 35
-15 55 -15 29 0 40 6 54 26 9 15 18 37 20 51 4 43 15 37 15 -9 0 -30 6 -50 16
-59 18 -15 56 -18 65 -5 4 4 15 4 25 -2 21 -11 143 -10 160 1 7 4 26 2 43 -4
22 -8 40 -8 66 1 25 8 39 9 49 1 15 -13 53 -7 75 13 24 22 27 22 47 4 29 -26
69 -32 87 -14 12 13 14 22 5 49 -5 17 -12 43 -15 57 -3 14 -9 30 -13 35 -4 6
-10 22 -13 36 -10 39 -46 79 -71 79 -27 0 -58 -34 -73 -80 l-11 -35 -1 33 c-1
49 -17 72 -49 72 -41 0 -52 -17 -52 -85 0 -60 0 -61 -30 -63 -22 -2 -32 3 -36
15 -3 10 -9 25 -14 35 -6 11 -4 20 5 28 22 19 18 48 -9 65 -18 12 -42 15 -88
13 -35 -3 -69 -8 -75 -11 -7 -4 -14 -3 -18 3 -4 6 -11 7 -17 4 -6 -4 -34 -6
-64 -5 -52 1 -54 0 -72 -36 l-19 -36 -6 31 c-8 39 -30 46 -150 47 -69 0 -91
-3 -100 -16 -10 -13 -16 -13 -37 -2 -37 19 -156 17 -164 -2 -5 -14 -9 -14 -32
2 -37 24 -141 25 -158 1 -12 -16 -14 -16 -42 1 -30 18 -107 19 -129 1 -6 -5
-21 -2 -35 5 -24 14 -77 16 -150 8z m150 -43 c0 -16 -7 -20 -35 -20 l-35 0 0
-84 c0 -81 -1 -84 -25 -88 l-25 -5 0 88 0 89 -30 0 c-23 0 -30 4 -30 20 0 19
7 20 90 20 83 0 90 -1 90 -20z m165 -5 c21 -20 25 -34 25 -80 0 -72 -28 -105
-88 -105 -53 0 -82 25 -89 77 -11 85 20 133 87 133 30 0 47 -7 65 -25z m193 9
c26 -18 30 -69 6 -95 -14 -16 -14 -21 5 -58 12 -22 21 -42 21 -44 0 -2 -13 -2
-29 1 -21 3 -33 12 -42 33 -6 17 -20 34 -30 40 -17 9 -19 6 -19 -31 0 -36 -2
-40 -25 -40 l-25 0 0 105 0 105 58 0 c36 0 66 -6 80 -16z m202 -4 c26 -26 26
-75 1 -92 -19 -14 -19 -15 4 -56 l24 -42 -30 0 c-24 0 -32 7 -46 35 -24 51
-43 53 -43 5 0 -37 -2 -40 -27 -40 l-28 0 0 105 0 105 63 0 c49 0 66 -4 82
-20z m273 -40 c10 -33 17 -67 17 -75 0 -31 18 -14 24 23 3 20 11 54 16 75 9
32 15 37 40 37 l29 0 -36 -105 c-33 -101 -36 -105 -63 -105 -27 0 -30 4 -62
101 -18 56 -34 94 -36 85 -3 -12 -15 -16 -53 -16 -42 0 -49 -3 -49 -20 0 -17
7 -20 39 -20 30 0 40 -4 44 -20 5 -18 0 -20 -39 -20 -40 0 -44 -2 -44 -25 0
-23 3 -25 50 -25 43 0 50 -3 50 -20 0 -18 -7 -20 -75 -20 l-75 0 0 105 0 105
103 0 104 0 16 -60z m197 -45 l0 -105 -27 0 -28 0 0 105 0 105 28 0 27 0 0
-105z m180 85 c0 -17 -7 -20 -51 -20 -46 0 -50 -2 -47 -22 3 -20 8 -22 46 -20
37 3 42 1 42 -17 0 -18 -6 -21 -45 -21 -41 0 -45 -2 -45 -25 0 -23 3 -25 50
-25 43 0 50 -3 50 -20 0 -18 -7 -20 -75 -20 l-75 0 0 105 0 105 75 0 c68 0 75
-2 75 -20z m155 -66 c-4 -102 -18 -124 -76 -124 -39 0 -69 20 -69 46 0 19 46
18 54 -1 3 -8 12 -12 21 -9 12 5 15 24 15 90 l0 84 29 0 30 0 -4 -86z m176
-24 c21 -58 39 -105 39 -106 0 0 -13 1 -30 4 -17 2 -32 12 -35 23 -9 27 -71
27 -80 -1 -4 -14 -15 -20 -36 -20 -26 0 -28 2 -20 19 6 11 25 58 42 106 29 79
33 86 56 83 22 -3 30 -16 64 -108z m-755 -47 c-1 -1 -12 0 -23 3 -19 5 -20 9
-10 25 11 18 12 18 23 -4 7 -12 11 -23 10 -24z"/>
<path d="M1430 2081 c-14 -27 -13 -84 2 -99 17 -17 55 -15 62 4 3 9 6 31 6 49
0 18 -3 40 -6 49 -9 22 -51 20 -64 -3z m50 -52 c0 -22 -20 -36 -30 -20 -4 7
-5 23 -2 37 3 19 7 22 18 13 8 -6 14 -20 14 -30z"/>
<path d="M1630 2070 c0 -28 3 -31 28 -28 21 2 27 8 27 28 0 20 -6 26 -27 28
-25 3 -28 0 -28 -28z"/>
<path d="M1830 2071 c0 -23 5 -31 18 -31 49 1 58 53 9 58 -24 3 -27 0 -27 -27z"/>
<path d="M2824 2044 c-10 -32 -10 -34 12 -34 21 0 22 3 14 31 -13 43 -14 43
-26 3z"/>
<path d="M2420 1815 c-138 -48 -222 -126 -175 -165 13 -11 63 -4 51 7 -6 7 39
32 63 36 9 1 21 6 28 10 7 4 30 10 52 12 35 4 40 1 43 -18 5 -33 41 -34 56 -2
13 28 28 31 66 14 20 -10 24 -17 19 -39 -4 -22 0 -31 17 -40 18 -10 24 -9 31
1 5 8 9 17 9 22 0 13 19 7 46 -16 25 -22 25 -24 10 -40 -14 -13 -15 -21 -6
-38 9 -17 18 -20 41 -15 36 7 42 -3 23 -38 -21 -42 -17 -56 17 -63 18 -3 28
-11 25 -18 -2 -6 0 -18 5 -26 6 -10 2 -15 -14 -19 -29 -7 -33 -41 -8 -64 16
-15 18 -22 9 -49 -6 -18 -17 -39 -24 -48 -8 -8 -14 -21 -14 -27 0 -6 -8 -16
-17 -21 -10 -6 -14 -11 -9 -11 5 0 1 -9 -9 -20 -15 -17 -16 -24 -7 -45 6 -14
17 -25 23 -25 20 0 116 107 130 144 7 20 16 36 19 36 13 0 31 112 29 177 -2
70 -28 155 -62 208 -46 71 -142 142 -242 180 -34 13 -188 13 -225 0z m289 -54
c115 -59 189 -160 213 -290 21 -110 -22 -245 -103 -328 -36 -38 -59 -52 -59
-38 0 2 18 30 40 61 22 32 45 76 51 98 5 23 12 49 15 59 4 13 -1 17 -25 17
-17 0 -31 5 -31 11 0 7 12 10 30 7 27 -4 30 -2 30 21 0 14 -3 43 -6 63 -6 34
-8 36 -32 27 -16 -6 -29 -6 -35 0 -5 5 3 12 22 16 17 4 31 9 31 11 0 3 -12 27
-26 55 l-25 51 -25 -23 c-30 -28 -45 -17 -16 14 24 26 19 36 -41 81 l-37 29
-11 -32 c-6 -17 -15 -31 -20 -31 -14 0 -11 23 6 47 15 21 14 23 -20 37 -19 9
-52 17 -73 18 -35 3 -37 1 -40 -29 -2 -18 -8 -33 -14 -33 -7 0 -8 14 -5 36 l6
36 -50 -6 c-58 -8 -140 -38 -180 -67 -15 -11 -30 -15 -33 -11 -10 17 74 80
150 112 41 17 66 19 149 17 90 -3 106 -6 164 -36z"/>
<path d="M1725 1553 l-34 -37 27 -23 c17 -15 34 -22 47 -18 65 19 65 16 2 -49
-34 -35 -61 -69 -59 -74 2 -6 -1 -13 -7 -16 -13 -8 -3 -36 21 -60 18 -17 26
-18 111 -7 92 12 106 19 107 56 1 18 2 19 13 3 9 -11 26 -16 51 -14 23 1 40
-4 43 -11 3 -7 8 -11 12 -8 4 2 14 -5 21 -16 9 -12 26 -19 45 -19 23 0 27 3
15 10 -13 8 -12 10 3 10 10 0 22 11 26 24 5 13 16 26 24 29 17 7 12 56 -9 73
-8 7 -14 39 -16 89 l-3 79 -33 10 c-43 12 -99 -13 -108 -49 -4 -15 -11 -22
-18 -18 -6 3 -8 3 -4 -1 4 -5 -9 -31 -28 -58 -19 -28 -34 -60 -34 -72 0 -19
-4 -21 -40 -18 l-40 4 35 35 c43 43 50 99 18 136 -9 9 -12 17 -7 17 5 0 -4 7
-20 15 -15 8 -51 15 -78 15 -44 0 -53 -4 -83 -37z m155 -9 c26 -22 31 -33 28
-62 -2 -30 -12 -43 -55 -77 -28 -22 -52 -43 -52 -47 -1 -5 24 -8 54 -8 53 0
55 -1 55 -27 l0 -28 -95 0 c-85 0 -95 2 -95 18 0 38 23 68 93 120 47 35 48 70
4 75 -16 2 -34 -1 -40 -6 -13 -10 -57 2 -57 15 0 4 15 18 33 31 43 30 88 28
127 -4z m270 -69 c0 -69 3 -85 15 -85 9 0 15 -9 15 -25 0 -16 -6 -25 -15 -25
-9 0 -15 -9 -15 -23 0 -20 -5 -24 -30 -24 -25 0 -30 4 -30 24 0 22 -4 23 -65
23 l-65 0 0 31 c0 21 17 54 57 110 55 75 60 79 95 79 l38 0 0 -85z m-363 -201
c-3 -3 -12 -4 -19 -1 -8 3 -5 6 6 6 11 1 17 -2 13 -5z"/>
<path d="M2050 1457 c-19 -28 -36 -55 -38 -59 -2 -5 15 -8 37 -8 l41 0 0 60
c0 33 -1 60 -2 60 -2 0 -19 -24 -38 -53z"/>
<path d="M2323 1573 c-3 -7 -10 -10 -16 -6 -6 4 -7 1 -2 -6 4 -7 3 -23 -2 -34
-20 -44 -31 -74 -54 -147 -12 -41 -26 -79 -31 -85 -4 -5 -8 -18 -8 -30 0 -12
-5 -26 -11 -32 -13 -13 14 -43 39 -44 14 0 13 -2 -3 -9 -16 -7 -17 -9 -3 -9
20 -1 78 67 78 91 0 10 4 26 10 36 5 9 21 55 35 102 30 104 39 120 57 102 6
-6 25 -12 40 -12 15 0 28 -5 28 -11 0 -8 6 -7 17 2 14 12 15 12 10 -1 -4 -8
-10 -23 -13 -32 -4 -10 -11 -18 -16 -18 -5 0 -7 -4 -3 -9 3 -5 1 -12 -5 -16
-6 -4 -8 -10 -5 -15 3 -5 0 -14 -7 -22 -7 -7 -15 -20 -17 -28 -2 -8 -5 -22 -7
-30 -2 -8 3 -24 11 -34 11 -15 17 -17 29 -7 10 8 16 9 21 1 3 -5 11 -10 17
-10 6 0 8 3 5 7 -4 3 4 21 18 38 13 18 32 52 41 76 9 24 21 48 26 54 4 5 8 17
8 27 0 10 5 18 10 18 6 0 10 20 10 45 0 40 -3 47 -26 55 -38 15 -145 12 -176
-4 -23 -12 -29 -12 -39 0 -14 16 -59 14 -66 -3z m57 -10 c0 -4 -26 -85 -57
-180 -53 -159 -59 -173 -81 -173 -15 0 -22 5 -19 13 2 6 28 84 57 172 28 88
54 163 57 168 5 9 43 9 43 0z m230 -27 c0 -13 -23 -73 -51 -133 -48 -103 -53
-110 -80 -110 -16 0 -29 4 -29 8 0 4 22 51 49 105 l49 99 -62 5 c-55 4 -61 7
-62 28 -1 21 2 22 93 22 92 0 93 0 93 -24z"/>
<path d="M650 1543 c-40 -27 -51 -41 -60 -75 -10 -34 -4 -78 12 -78 5 0 6 5 2
11 -12 20 -6 66 12 94 35 53 100 67 138 29 9 -8 16 -11 16 -5 0 16 -42 41 -70
41 -14 0 -37 -8 -50 -17z"/>
<path d="M767 1475 c12 -53 7 -83 -22 -120 -23 -31 -24 -35 -6 -23 12 7 24 21
27 30 3 10 10 18 15 18 14 0 10 61 -7 95 l-14 30 7 -30z"/>
<path d="M68 1433 c12 -2 30 -2 40 0 9 3 -1 5 -23 4 -22 0 -30 -2 -17 -4z"/>
<path d="M315 1410 c-3 -5 -1 -10 4 -10 6 0 11 5 11 10 0 6 -2 10 -4 10 -3 0
-8 -4 -11 -10z"/>
<path d="M289 1354 c-23 -25 -23 -26 -2 -15 23 12 38 29 31 37 -3 2 -15 -8
-29 -22z"/>
<path d="M901 1263 c-33 -40 -45 -82 -38 -129 3 -20 4 -16 6 17 1 33 9 57 29
85 36 50 44 64 38 64 -2 0 -18 -17 -35 -37z"/>
<path d="M441 1260 c0 -8 4 -22 9 -30 12 -18 12 -2 0 25 -6 13 -9 15 -9 5z"/>
<path d="M796 1181 c-19 -7 -19 -8 2 -13 23 -6 29 -32 13 -57 -7 -11 -3 -18
16 -28 30 -15 63 -17 63 -3 0 6 10 10 23 9 21 0 21 -1 2 -10 -17 -8 -16 -9 8
-6 15 3 27 -1 27 -7 0 -6 5 -4 10 4 8 12 10 12 10 -5 1 -18 2 -18 10 3 8 19
13 21 30 12 11 -6 20 -16 20 -21 0 -7 10 -9 26 -5 19 5 25 3 22 -6 -7 -20 -78
-34 -89 -17 -7 11 -12 9 -24 -8 -9 -13 -23 -23 -31 -23 -17 0 -17 5 -3 31 10
19 9 20 -11 9 -16 -9 -25 -8 -36 1 -8 7 -31 12 -50 11 -27 -1 -37 3 -43 20
l-8 22 -5 -22 c-4 -12 -3 -22 1 -22 4 0 6 -13 3 -30 -2 -16 -8 -27 -13 -24 -5
3 -9 -4 -9 -15 0 -22 28 -34 70 -29 19 2 25 -2 25 -17 0 -17 -6 -20 -51 -19
-36 0 -51 -3 -47 -11 2 -7 14 -10 26 -8 20 4 22 1 21 -47 -2 -54 -10 -73 -23
-51 -7 11 -13 9 -30 -8 -25 -25 -27 -35 -5 -27 9 4 23 1 30 -5 11 -9 11 -13
-1 -25 -8 -8 -20 -34 -26 -57 -7 -23 -21 -52 -32 -65 -23 -24 -41 -123 -22
-116 6 3 9 19 7 37 -3 25 3 41 22 64 14 17 26 39 26 50 0 19 33 87 40 83 3 -1
18 4 35 10 28 10 28 10 13 -7 -12 -14 -38 -127 -38 -167 0 -3 -6 -6 -14 -6
-21 0 -47 -83 -36 -117 15 -48 50 -110 50 -87 0 11 -7 29 -15 40 -23 30 -18
72 19 148 19 40 37 95 40 124 4 35 15 65 31 86 14 18 35 52 48 76 12 23 26 42
32 41 5 0 9 -58 10 -129 1 -115 9 -243 21 -299 5 -26 55 -46 88 -33 13 5 29 4
37 -1 22 -14 73 -11 107 7 41 20 41 25 0 14 -37 -10 -205 -7 -216 5 -12 11
-23 516 -11 509 6 -3 19 9 80 73 23 25 24 31 13 52 -11 21 -13 22 -22 5 -8
-15 -13 -16 -26 -5 -9 7 -13 17 -11 22 3 4 -41 10 -97 11 l-103 3 3 27 c2 14
-2 29 -8 33 -5 3 -8 11 -5 16 7 10 7 10 -19 0z m38 -180 c-9 -35 -13 -41 -29
-41 -20 0 -23 11 -13 47 6 24 12 30 28 26 16 -4 19 -11 14 -32z m82 -9 c8 -12
15 -12 32 -3 12 6 22 16 22 21 0 6 5 10 10 10 18 0 11 -29 -20 -78 -16 -27
-30 -54 -30 -61 0 -6 -6 -10 -12 -8 -7 1 -13 -6 -13 -15 0 -9 -4 -20 -9 -25
-5 -5 -6 -2 -1 6 6 10 4 12 -4 7 -7 -5 -10 -14 -7 -22 3 -8 1 -14 -4 -14 -6 0
-10 -5 -10 -12 0 -39 -66 -63 -91 -32 -11 14 -10 15 6 12 13 -2 24 7 34 27 9
17 19 31 24 33 4 2 7 13 6 25 0 21 -1 21 -8 3 -6 -16 -9 -17 -16 -6 -5 9 -4
15 3 18 35 11 58 75 31 84 -6 2 -8 14 -4 31 6 23 11 26 29 21 11 -4 26 -14 32
-22z m124 14 c0 -2 -7 -9 -15 -16 -12 -10 -15 -10 -15 4 0 9 7 16 15 16 8 0
15 -2 15 -4z"/>
<path d="M1132 1063 c0 -23 5 -46 10 -49 7 -5 9 2 4 20 -5 19 -3 26 9 26 20 0
19 6 -3 28 -18 18 -19 18 -20 -25z"/>
<path d="M1111 1074 c0 -11 3 -14 6 -6 3 7 2 16 -1 19 -3 4 -6 -2 -5 -13z"/>
<path d="M1000 1058 c0 -9 5 -20 10 -23 13 -8 13 5 0 25 -8 13 -10 13 -10 -2z"/>
<path d="M1119 503 c-13 -16 -12 -17 4 -4 16 13 21 21 13 21 -2 0 -10 -8 -17
-17z"/>
<path d="M638 463 c-10 -2 -18 -9 -18 -14 0 -6 5 -7 10 -4 6 3 10 1 10 -5 0
-7 6 -8 19 0 11 5 28 10 38 9 10 0 2 -8 -21 -18 l-38 -17 26 -12 c30 -14 59
-4 70 24 7 19 8 17 -21 33 -22 11 -44 12 -75 4z m77 -43 c-3 -5 -16 -10 -28
-10 -18 0 -19 2 -7 10 20 13 43 13 35 0z"/>
</g>
</svg>
